<svg width="44" height="28" viewBox="0 0 44 28" fill="none" xmlns="http://www.w3.org/2000/svg">
<rect width="44" height="28" rx="8" fill="#2C3D50"/>
<path d="M3.48242 18L6.78125 9.41016H8.00586L11.5215 18H10.2266L9.22461 15.3984H5.63281L4.68945 18H3.48242ZM5.96094 14.4727H8.87305L7.97656 12.0938C7.70312 11.3711 7.5 10.7773 7.36719 10.3125C7.25781 10.8633 7.10352 11.4102 6.9043 11.9531L5.96094 14.4727ZM16.3555 15.7207L17.3926 15.8555C17.2793 16.5703 16.9883 17.1309 16.5195 17.5371C16.0547 17.9395 15.4824 18.1406 14.8027 18.1406C13.9512 18.1406 13.2656 17.8633 12.7461 17.3086C12.2305 16.75 11.9727 15.9512 11.9727 14.9121C11.9727 14.2402 12.084 13.6523 12.3066 13.1484C12.5293 12.6445 12.8672 12.2676 13.3203 12.0176C13.7773 11.7637 14.2734 11.6367 14.8086 11.6367C15.4844 11.6367 16.0371 11.8086 16.4668 12.1523C16.8965 12.4922 17.1719 12.9766 17.293 13.6055L16.2676 13.7637C16.1699 13.3457 15.9961 13.0312 15.7461 12.8203C15.5 12.6094 15.2012 12.5039 14.8496 12.5039C14.3184 12.5039 13.8867 12.6953 13.5547 13.0781C13.2227 13.457 13.0566 14.0586 13.0566 14.8828C13.0566 15.7188 13.2168 16.3262 13.5371 16.7051C13.8574 17.084 14.2754 17.2734 14.791 17.2734C15.2051 17.2734 15.5508 17.1465 15.8281 16.8926C16.1055 16.6387 16.2812 16.248 16.3555 15.7207ZM20.5977 17.0566L20.75 17.9883C20.4531 18.0508 20.1875 18.082 19.9531 18.082C19.5703 18.082 19.2734 18.0215 19.0625 17.9004C18.8516 17.7793 18.7031 17.6211 18.6172 17.4258C18.5312 17.2266 18.4883 16.8105 18.4883 16.1777V12.5977H17.7148V11.7773H18.4883V10.2363L19.5371 9.60352V11.7773H20.5977V12.5977H19.5371V16.2363C19.5371 16.5371 19.5547 16.7305 19.5898 16.8164C19.6289 16.9023 19.6895 16.9707 19.7715 17.0215C19.8574 17.0723 19.9785 17.0977 20.1348 17.0977C20.252 17.0977 20.4062 17.084 20.5977 17.0566ZM21.6406 10.623V9.41016H22.6953V10.623H21.6406ZM21.6406 18V11.7773H22.6953V18H21.6406ZM26.0352 18L23.668 11.7773H24.7812L26.1172 15.5039C26.2617 15.9062 26.3945 16.3242 26.5156 16.7578C26.6094 16.4297 26.7402 16.0352 26.9082 15.5742L28.291 11.7773H29.375L27.0195 18H26.0352ZM34.3672 17.2324C33.9766 17.5645 33.5996 17.7988 33.2363 17.9355C32.877 18.0723 32.4902 18.1406 32.0762 18.1406C31.3926 18.1406 30.8672 17.9746 30.5 17.6426C30.1328 17.3066 29.9492 16.8789 29.9492 16.3594C29.9492 16.0547 30.0176 15.7773 30.1543 15.5273C30.2949 15.2734 30.4766 15.0703 30.6992 14.918C30.9258 14.7656 31.1797 14.6504 31.4609 14.5723C31.668 14.5176 31.9805 14.4648 32.3984 14.4141C33.25 14.3125 33.877 14.1914 34.2793 14.0508C34.2832 13.9062 34.2852 13.8145 34.2852 13.7754C34.2852 13.3457 34.1855 13.043 33.9863 12.8672C33.7168 12.6289 33.3164 12.5098 32.7852 12.5098C32.2891 12.5098 31.9219 12.5977 31.6836 12.7734C31.4492 12.9453 31.2754 13.252 31.1621 13.6934L30.1309 13.5527C30.2246 13.1113 30.3789 12.7559 30.5938 12.4863C30.8086 12.2129 31.1191 12.0039 31.5254 11.8594C31.9316 11.7109 32.4023 11.6367 32.9375 11.6367C33.4688 11.6367 33.9004 11.6992 34.2324 11.8242C34.5645 11.9492 34.8086 12.1074 34.9648 12.2988C35.1211 12.4863 35.2305 12.7246 35.293 13.0137C35.3281 13.1934 35.3457 13.5176 35.3457 13.9863V15.3926C35.3457 16.373 35.3672 16.9941 35.4102 17.2559C35.457 17.5137 35.5469 17.7617 35.6797 18H34.5781C34.4688 17.7812 34.3984 17.5254 34.3672 17.2324ZM34.2793 14.877C33.8965 15.0332 33.3223 15.166 32.5566 15.2754C32.123 15.3379 31.8164 15.4082 31.6367 15.4863C31.457 15.5645 31.3184 15.6797 31.2207 15.832C31.123 15.9805 31.0742 16.1465 31.0742 16.3301C31.0742 16.6113 31.1797 16.8457 31.3906 17.0332C31.6055 17.2207 31.918 17.3145 32.3281 17.3145C32.7344 17.3145 33.0957 17.2266 33.4121 17.0508C33.7285 16.8711 33.9609 16.627 34.1094 16.3184C34.2227 16.0801 34.2793 15.7285 34.2793 15.2637V14.877ZM36.9746 18V11.7773H37.9238V12.7207C38.166 12.2793 38.3887 11.9883 38.5918 11.8477C38.7988 11.707 39.0254 11.6367 39.2715 11.6367C39.627 11.6367 39.9883 11.75 40.3555 11.9766L39.9922 12.9551C39.7344 12.8027 39.4766 12.7266 39.2188 12.7266C38.9883 12.7266 38.7812 12.7969 38.5977 12.9375C38.4141 13.0742 38.2832 13.2656 38.2051 13.5117C38.0879 13.8867 38.0293 14.2969 38.0293 14.7422V18H36.9746Z" fill="#A9A9AC"/>
</svg>
