<svg width="42" height="28" viewBox="0 0 42 28" fill="none" xmlns="http://www.w3.org/2000/svg">
<rect width="42" height="28" rx="8" fill="white"/>
<g clip-path="url(#clip0_471_146799)">
<rect x="10" y="3" width="22" height="22" rx="11" fill="#0156A3"/>
<path d="M27.4161 13.0834H17.177L21.6503 8.61008C22.0078 8.25258 22.0078 7.66591 21.6503 7.30841C21.2928 6.95091 20.7153 6.95091 20.3578 7.30841L14.317 13.3492C13.9595 13.7067 13.9595 14.2842 14.317 14.6417L20.3578 20.6826C20.7153 21.0401 21.2928 21.0401 21.6503 20.6826C22.0078 20.3251 22.0078 19.7476 21.6503 19.3901L17.177 14.9167H27.4161C27.9203 14.9167 28.3328 14.5042 28.3328 14.0001C28.3328 13.4959 27.9203 13.0834 27.4161 13.0834Z" fill="white"/>
</g>
<defs>
<clipPath id="clip0_471_146799">
<rect x="10" y="3" width="22" height="22" rx="11" fill="white"/>
</clipPath>
</defs>
</svg>
