<svg width="22" height="22" viewBox="0 0 22 22" fill="none" xmlns="http://www.w3.org/2000/svg">
<g clip-path="url(#clip0_469_144589)">
<rect width="22" height="22" rx="11" fill="#0156A3"/>
<path d="M17.4166 10.0822H7.17744L11.6508 5.60885C12.0083 5.25135 12.0083 4.66469 11.6508 4.30719C11.2933 3.94969 10.7158 3.94969 10.3583 4.30719L4.31744 10.348C3.95994 10.7055 3.95994 11.283 4.31744 11.6405L10.3583 17.6814C10.7158 18.0389 11.2933 18.0389 11.6508 17.6814C12.0083 17.3239 12.0083 16.7464 11.6508 16.3889L7.17744 11.9155H17.4166C17.9208 11.9155 18.3333 11.503 18.3333 10.9989C18.3333 10.4947 17.9208 10.0822 17.4166 10.0822Z" fill="white"/>
</g>
<defs>
<clipPath id="clip0_469_144589">
<rect width="22" height="22" rx="11" fill="white"/>
</clipPath>
</defs>
</svg>
