<svg width="22" height="23" viewBox="0 0 22 23" fill="none" xmlns="http://www.w3.org/2000/svg">
<path fill-rule="evenodd" clip-rule="evenodd" d="M13.7067 6.79279C13.8941 6.98031 13.9995 7.23462 13.9995 7.49979C13.9995 7.76495 13.8941 8.01926 13.7067 8.20679L10.4137 11.4998L13.7067 14.7928C13.8022 14.885 13.8784 14.9954 13.9308 15.1174C13.9832 15.2394 14.0108 15.3706 14.0119 15.5034C14.0131 15.6362 13.9878 15.7678 13.9375 15.8907C13.8872 16.0136 13.813 16.1253 13.7191 16.2192C13.6252 16.3131 13.5135 16.3873 13.3906 16.4376C13.2677 16.4879 13.1361 16.5132 13.0033 16.512C12.8705 16.5109 12.7393 16.4833 12.6173 16.4309C12.4953 16.3785 12.3849 16.3023 12.2927 16.2068L8.29267 12.2068C8.1052 12.0193 7.99989 11.765 7.99989 11.4998C7.99989 11.2346 8.1052 10.9803 8.29267 10.7928L12.2927 6.79279C12.4802 6.60532 12.7345 6.5 12.9997 6.5C13.2648 6.5 13.5191 6.60532 13.7067 6.79279Z" fill="#0156A3"/>
</svg>
