<svg width="22" height="23" viewBox="0 0 22 23" fill="none" xmlns="http://www.w3.org/2000/svg">
<path fill-rule="evenodd" clip-rule="evenodd" d="M8.30504 16.2189C8.11757 16.0314 8.01226 15.7771 8.01226 15.5119C8.01226 15.2468 8.11757 14.9925 8.30504 14.8049L11.598 11.5119L8.30504 8.21893C8.20953 8.12669 8.13335 8.01634 8.08094 7.89434C8.02853 7.77233 8.00095 7.64111 7.99979 7.50833C7.99864 7.37555 8.02394 7.24387 8.07422 7.12098C8.1245 6.99808 8.19876 6.88643 8.29265 6.79254C8.38654 6.69864 8.49819 6.62439 8.62109 6.57411C8.74399 6.52383 8.87567 6.49853 9.00844 6.49968C9.14122 6.50084 9.27244 6.52842 9.39445 6.58083C9.51645 6.63324 9.6268 6.70942 9.71904 6.80493L13.719 10.8049C13.9065 10.9925 14.0118 11.2468 14.0118 11.5119C14.0118 11.7771 13.9065 12.0314 13.719 12.2189L9.71904 16.2189C9.53152 16.4064 9.27721 16.5117 9.01204 16.5117C8.74688 16.5117 8.49257 16.4064 8.30504 16.2189Z" fill="#0156A3"/>
</svg>
