<svg width="20" height="20" viewBox="0 0 20 20" fill="none" xmlns="http://www.w3.org/2000/svg">
<g clip-path="url(#clip0_952_36341)">
<rect width="20" height="20" rx="4" fill="#0156A3"/>
<path d="M9.99996 1.6665C5.39163 1.6665 1.66663 5.3915 1.66663 9.99984C1.66663 14.6082 5.39163 18.3332 9.99996 18.3332C14.6083 18.3332 18.3333 14.6082 18.3333 9.99984C18.3333 5.3915 14.6083 1.6665 9.99996 1.6665ZM9.99996 16.6665C6.32496 16.6665 3.33329 13.6748 3.33329 9.99984C3.33329 6.32484 6.32496 3.33317 9.99996 3.33317C13.675 3.33317 16.6666 6.32484 16.6666 9.99984C16.6666 13.6748 13.675 16.6665 9.99996 16.6665ZM12.9916 5.83317L9.99996 8.82484L7.00829 5.83317L5.83329 7.00817L8.82496 9.99984L5.83329 12.9915L7.00829 14.1665L9.99996 11.1748L12.9916 14.1665L14.1666 12.9915L11.175 9.99984L14.1666 7.00817L12.9916 5.83317Z" fill="white"/>
</g>
<defs>
<clipPath id="clip0_952_36341">
<rect width="20" height="20" rx="4" fill="white"/>
</clipPath>
</defs>
</svg>
