<svg width="22" height="22" viewBox="0 0 22 22" fill="none" xmlns="http://www.w3.org/2000/svg">
<g clip-path="url(#clip0_883_13989)">
<path d="M10.9999 1.83301C5.93992 1.83301 1.83325 5.93967 1.83325 10.9997C1.83325 16.0597 5.93992 20.1663 10.9999 20.1663C16.0599 20.1663 20.1666 16.0597 20.1666 10.9997C20.1666 5.93967 16.0599 1.83301 10.9999 1.83301ZM10.9999 18.333C6.95742 18.333 3.66659 15.0422 3.66659 10.9997C3.66659 6.95717 6.95742 3.66634 10.9999 3.66634C15.0424 3.66634 18.3333 6.95717 18.3333 10.9997C18.3333 15.0422 15.0424 18.333 10.9999 18.333ZM15.2074 6.94801L9.16659 12.9888L6.79242 10.6238L5.49992 11.9163L9.16659 15.583L16.4999 8.24967L15.2074 6.94801Z" fill="#34495E"/>
</g>
<defs>
<clipPath id="clip0_883_13989">
<rect width="22" height="22" fill="white"/>
</clipPath>
</defs>
</svg>
