<svg width="22" height="22" viewBox="0 0 22 22" fill="none" xmlns="http://www.w3.org/2000/svg">
<path d="M10.9993 0.166748C5.00852 0.166748 0.166016 5.00925 0.166016 11.0001C0.166016 16.9909 5.00852 21.8334 10.9993 21.8334C16.9902 21.8334 21.8327 16.9909 21.8327 11.0001C21.8327 5.00925 16.9902 0.166748 10.9993 0.166748ZM10.9993 19.6667C6.22185 19.6667 2.33268 15.7776 2.33268 11.0001C2.33268 6.22258 6.22185 2.33341 10.9993 2.33341C15.7768 2.33341 19.666 6.22258 19.666 11.0001C19.666 15.7776 15.7768 19.6667 10.9993 19.6667ZM14.8885 5.58341L10.9993 9.47258L7.11018 5.58341L5.58268 7.11091L9.47185 11.0001L5.58268 14.8892L7.11018 16.4167L10.9993 12.5276L14.8885 16.4167L16.416 14.8892L12.5268 11.0001L16.416 7.11091L14.8885 5.58341Z" fill="#0156A3"/>
</svg>
