<svg width="30" height="30" viewBox="0 0 30 30" fill="none" xmlns="http://www.w3.org/2000/svg">
<g clip-path="url(#clip0_923_32368)">
<path d="M16.4625 5L22.5 11.0375V25H7.5V5H16.4625ZM17.5 2.5H7.5C6.125 2.5 5 3.625 5 5V25C5 26.375 6.125 27.5 7.5 27.5H22.5C23.875 27.5 25 26.375 25 25V10L17.5 2.5ZM15 17.5C16.375 17.5 17.5 16.375 17.5 15C17.5 13.625 16.375 12.5 15 12.5C13.625 12.5 12.5 13.625 12.5 15C12.5 16.375 13.625 17.5 15 17.5ZM20 21.7875C20 20.775 19.4 19.875 18.475 19.475C17.4125 19.0125 16.2375 18.75 15 18.75C13.7625 18.75 12.5875 19.0125 11.525 19.475C10.6 19.875 10 20.775 10 21.7875V22.5H20V21.7875Z" fill="#2C3D50"/>
</g>
<defs>
<clipPath id="clip0_923_32368">
<rect width="30" height="30" fill="white"/>
</clipPath>
</defs>
</svg>
