<svg width="26" height="30" viewBox="0 0 26 30" fill="none" xmlns="http://www.w3.org/2000/svg">
<path d="M2.91602 0.126953V29.8685H25.3247V6.74191L18.7098 0.126953H2.91602Z" fill="#FAFAFA"/>
<path d="M18.7129 0.138672L25.2986 6.72434H18.7129V0.138672Z" fill="#E6E6E6"/>
<path d="M2.92598 12.4025C1.96169 11.4383 0.997491 10.4741 0.0332031 9.50977H2.92598V12.4025Z" fill="#43B157"/>
<path d="M25.4503 30H2.7832V0H18.7597L18.7975 0.0378137L25.4503 6.69058V29.9999V30ZM3.04161 29.7416H25.1919V6.79765L18.6527 0.258407H3.04161V29.7415V29.7416Z" fill="#808080"/>
<path d="M25.295 6.85581H18.7093C18.638 6.85581 18.5801 6.79793 18.5801 6.72661V0.140938C18.5801 0.0886541 18.6115 0.041538 18.6598 0.0215546C18.7081 0.00157109 18.7637 0.0125965 18.8007 0.0495486L25.3863 6.63522C25.4233 6.67217 25.4343 6.72773 25.4143 6.77605C25.3944 6.82429 25.3472 6.85581 25.295 6.85581ZM18.8385 6.59741H24.9831L18.8385 0.452835V6.59741Z" fill="#808080"/>
<path d="M15.6453 3.14258H0V9.50593H15.6453V3.14258Z" fill="#43B157"/>
<path d="M11.888 16.0468V13.9355H5.41797V25.311H22.8167V16.0468H11.888ZM6.23729 14.755H11.0686V16.0469H6.23729V14.755ZM6.23729 21.0886H11.0686V22.3805H6.23729V21.0886ZM6.23729 20.2693V18.9773H11.0686V20.2693H6.23729ZM6.23729 18.1581V16.8661H11.0686V18.1581H6.23729ZM6.23729 24.4918V23.1999H11.0686V24.4918H6.23729ZM21.9974 24.4918H11.888V23.1999H21.9974V24.4918ZM21.9974 22.3805H11.888V21.0886H21.9974V22.3805ZM21.9974 20.2693H11.888V18.9773H21.9974V20.2693ZM11.888 18.1581V16.8661H21.9974V18.1581H11.888Z" fill="#43B157"/>
<path d="M6.15039 6.74254L6.91477 6.98491C6.79759 7.41104 6.60227 7.72798 6.32884 7.93572C6.05717 8.14169 5.71183 8.24467 5.29279 8.24467C4.77433 8.24467 4.34819 8.068 4.01438 7.71467C3.68058 7.35955 3.51367 6.87482 3.51367 6.26048C3.51367 5.61062 3.68146 5.10636 4.01705 4.74769C4.35263 4.38725 4.79386 4.20703 5.34073 4.20703C5.81836 4.20703 6.20632 4.34819 6.50462 4.6305C6.68217 4.79741 6.81534 5.03711 6.90412 5.34961L6.12376 5.53604C6.07759 5.33363 5.98082 5.17383 5.83345 5.05664C5.68786 4.93945 5.5103 4.88086 5.30078 4.88086C5.01136 4.88086 4.7761 4.98473 4.59499 5.19247C4.41566 5.40021 4.32599 5.73668 4.32599 6.20188C4.32599 6.69549 4.41477 7.04705 4.59233 7.25657C4.76989 7.46609 5.00071 7.57085 5.2848 7.57085C5.49432 7.57085 5.67454 7.50426 5.82546 7.37109C5.97638 7.23793 6.08469 7.02841 6.15039 6.74254Z" fill="white"/>
<path d="M7.39418 6.90767L8.16122 6.8331C8.20739 7.09055 8.3006 7.27965 8.44087 7.40039C8.58292 7.52113 8.77379 7.5815 9.01349 7.5815C9.2674 7.5815 9.45827 7.52823 9.58611 7.4217C9.71573 7.31339 9.78054 7.18732 9.78054 7.0435C9.78054 6.95117 9.75302 6.87305 9.69798 6.80913C9.64471 6.74343 9.5506 6.68661 9.41566 6.63867C9.32333 6.60671 9.11293 6.54989 8.78445 6.46822C8.36186 6.36346 8.06534 6.23473 7.89489 6.08203C7.65518 5.86719 7.53533 5.60529 7.53533 5.29634C7.53533 5.09748 7.59126 4.91193 7.70312 4.7397C7.81676 4.5657 7.97923 4.43342 8.19052 4.34286C8.40359 4.25231 8.66016 4.20703 8.96023 4.20703C9.45028 4.20703 9.81871 4.31445 10.0655 4.5293C10.3141 4.74414 10.4446 5.03089 10.457 5.38956L9.66868 5.42418C9.63494 5.22354 9.56214 5.07972 9.45028 4.99272C9.3402 4.90394 9.17418 4.85955 8.95224 4.85955C8.72319 4.85955 8.54386 4.90661 8.41424 5.00071C8.33079 5.06108 8.28906 5.14187 8.28906 5.24308C8.28906 5.3354 8.32812 5.41442 8.40625 5.48011C8.50568 5.56357 8.74716 5.65057 9.13068 5.74112C9.5142 5.83168 9.79741 5.92578 9.98029 6.02344C10.165 6.11932 10.3088 6.2516 10.4118 6.42028C10.5165 6.58718 10.5689 6.79403 10.5689 7.04084C10.5689 7.26456 10.5067 7.47408 10.3825 7.66939C10.2582 7.8647 10.0824 8.0103 9.85511 8.10618C9.62784 8.20028 9.34464 8.24734 9.0055 8.24734C8.5119 8.24734 8.13281 8.1337 7.86825 7.90643C7.60369 7.67738 7.44567 7.34446 7.39418 6.90767Z" fill="white"/>
<path d="M12.2282 8.17809L10.8326 4.27362H11.6875L12.6756 7.16335L13.6317 4.27362H14.468L13.0698 8.17809H12.2282Z" fill="white"/>
</svg>
