<svg width="15" height="15" viewBox="0 0 15 15" fill="none" xmlns="http://www.w3.org/2000/svg">
<g clip-path="url(#clip0_240_42060)">
<path d="M6.875 11.25C6.875 11.9375 6.3125 12.5 5.625 12.5C4.9375 12.5 4.375 11.9375 4.375 11.25C4.375 10.5625 4.9375 10 5.625 10C6.3125 10 6.875 10.5625 6.875 11.25ZM5.625 6.25C4.9375 6.25 4.375 6.8125 4.375 7.5C4.375 8.1875 4.9375 8.75 5.625 8.75C6.3125 8.75 6.875 8.1875 6.875 7.5C6.875 6.8125 6.3125 6.25 5.625 6.25ZM5.625 2.5C4.9375 2.5 4.375 3.0625 4.375 3.75C4.375 4.4375 4.9375 5 5.625 5C6.3125 5 6.875 4.4375 6.875 3.75C6.875 3.0625 6.3125 2.5 5.625 2.5ZM9.375 5C10.0625 5 10.625 4.4375 10.625 3.75C10.625 3.0625 10.0625 2.5 9.375 2.5C8.6875 2.5 8.125 3.0625 8.125 3.75C8.125 4.4375 8.6875 5 9.375 5ZM9.375 6.25C8.6875 6.25 8.125 6.8125 8.125 7.5C8.125 8.1875 8.6875 8.75 9.375 8.75C10.0625 8.75 10.625 8.1875 10.625 7.5C10.625 6.8125 10.0625 6.25 9.375 6.25ZM9.375 10C8.6875 10 8.125 10.5625 8.125 11.25C8.125 11.9375 8.6875 12.5 9.375 12.5C10.0625 12.5 10.625 11.9375 10.625 11.25C10.625 10.5625 10.0625 10 9.375 10Z" fill="black"/>
</g>
<defs>
<clipPath id="clip0_240_42060">
<rect width="15" height="15" fill="white"/>
</clipPath>
</defs>
</svg>
