<svg width="18" height="18" viewBox="0 0 18 18" fill="none" xmlns="http://www.w3.org/2000/svg">
<path d="M8 6.45497C8 6.18691 8.09322 5.96073 8.27119 5.77644C8.45763 5.59215 8.69492 5.5 9 5.5C9.30508 5.5 9.54237 5.59215 9.72881 5.77644C9.91525 5.96073 10 6.18691 10 6.45497C10 6.72304 9.90678 6.94921 9.72881 7.13351C9.54237 7.3178 9.30508 7.40995 9 7.40995C8.69492 7.40995 8.45763 7.32618 8.27119 7.14188C8.09322 6.95759 8 6.73141 8 6.45497ZM9.91525 13.4079C9.83898 13.4246 9.72034 13.4414 9.5678 13.4665C9.41525 13.4916 9.25424 13.5 9.10169 13.5C8.94068 13.5 8.80508 13.4916 8.67797 13.4665C8.55085 13.4414 8.44915 13.3995 8.35593 13.3408C8.27119 13.2738 8.20339 13.1901 8.15254 13.0812C8.1017 12.9723 8.08475 12.8298 8.08475 12.6539V8.31466C8.16102 8.29791 8.27966 8.28115 8.4322 8.25602C8.58475 8.23089 8.74576 8.21414 8.90678 8.21414C9.0678 8.21414 9.20339 8.22251 9.33051 8.24764C9.45763 8.27278 9.55932 8.31466 9.65254 8.3733C9.73729 8.44031 9.80508 8.52408 9.85593 8.63298C9.90678 8.74189 9.92373 8.88429 9.92373 9.06859V13.4079H9.91525Z" fill="white"/>
<path d="M8.99101 0.5C4.02301 0.509 -0.00898495 4.541 1.50377e-05 9.50899C0.00901503 14.477 4.04101 18.509 9.00901 18.5C13.977 18.491 18 14.468 18 9.49999C18 4.532 13.968 0.5 9.00001 0.5H8.99101ZM9.00001 16.7C5.02201 16.7 1.80001 13.478 1.80001 9.49999C1.80001 5.522 5.02201 2.3 9.00001 2.3C12.978 2.3 16.2 5.522 16.2 9.49999C16.2 13.478 12.978 16.7 9.00001 16.7Z" fill="white"/>
</svg>
