<svg width="22" height="22" viewBox="0 0 22 22" fill="none" xmlns="http://www.w3.org/2000/svg">
<path d="M11.1145 16.5574C11.423 16.5574 11.6817 16.4529 11.8907 16.2439C12.0989 16.0356 12.2031 15.7773 12.2031 15.4688C12.2031 15.1604 12.0989 14.9017 11.8907 14.6927C11.6817 14.4844 11.423 14.3803 11.1145 14.3803C10.8061 14.3803 10.5478 14.4844 10.3395 14.6927C10.1305 14.9017 10.026 15.1604 10.026 15.4688C10.026 15.7773 10.1305 16.0356 10.3395 16.2439C10.5478 16.4529 10.8061 16.5574 11.1145 16.5574ZM10.026 12.2032H12.2031V5.67196H10.026V12.2032ZM11.1145 22.0001C9.60873 22.0001 8.19362 21.7142 6.86923 21.1423C5.54484 20.5712 4.3928 19.7958 3.41311 18.8161C2.43342 17.8364 1.65802 16.6844 1.0869 15.36C0.51505 14.0356 0.229126 12.6205 0.229126 11.1147C0.229126 9.60885 0.51505 8.19375 1.0869 6.86935C1.65802 5.54496 2.43342 4.39292 3.41311 3.41323C4.3928 2.43355 5.54484 1.65778 6.86923 1.08593C8.19362 0.514809 9.60873 0.229248 11.1145 0.229248C12.6204 0.229248 14.0355 0.514809 15.3599 1.08593C16.6842 1.65778 17.8363 2.43355 18.816 3.41323C19.7957 4.39292 20.5711 5.54496 21.1422 6.86935C21.714 8.19375 22 9.60885 22 11.1147C22 12.6205 21.714 14.0356 21.1422 15.36C20.5711 16.6844 19.7957 17.8364 18.816 18.8161C17.8363 19.7958 16.6842 20.5712 15.3599 21.1423C14.0355 21.7142 12.6204 22.0001 11.1145 22.0001ZM11.1145 19.823C13.5456 19.823 15.6048 18.9794 17.292 17.2921C18.9793 15.6049 19.8229 13.5457 19.8229 11.1147C19.8229 8.68359 18.9793 6.62443 17.292 4.93719C15.6048 3.24995 13.5456 2.40633 11.1145 2.40633C8.68347 2.40633 6.62431 3.24995 4.93707 4.93719C3.24983 6.62443 2.40621 8.68359 2.40621 11.1147C2.40621 13.5457 3.24983 15.6049 4.93707 17.2921C6.62431 18.9794 8.68347 19.823 11.1145 19.823Z" fill="#F44336"/>
</svg>
