<svg width="44" height="28" viewBox="0 0 44 28" fill="none" xmlns="http://www.w3.org/2000/svg">
<rect width="44" height="28" rx="8" fill="#A9A9AC"/>
<g clip-path="url(#clip0_1027_36341)">
<path d="M22 8.5C25.79 8.5 29.17 10.63 30.82 14C29.17 17.37 25.8 19.5 22 19.5C18.2 19.5 14.83 17.37 13.18 14C14.83 10.63 18.21 8.5 22 8.5ZM22 6.5C17 6.5 12.73 9.61 11 14C12.73 18.39 17 21.5 22 21.5C27 21.5 31.27 18.39 33 14C31.27 9.61 27 6.5 22 6.5ZM22 11.5C23.38 11.5 24.5 12.62 24.5 14C24.5 15.38 23.38 16.5 22 16.5C20.62 16.5 19.5 15.38 19.5 14C19.5 12.62 20.62 11.5 22 11.5ZM22 9.5C19.52 9.5 17.5 11.52 17.5 14C17.5 16.48 19.52 18.5 22 18.5C24.48 18.5 26.5 16.48 26.5 14C26.5 11.52 24.48 9.5 22 9.5Z" fill="white"/>
</g>
<defs>
<clipPath id="clip0_1027_36341">
<rect width="24" height="24" fill="white" transform="translate(10 2)"/>
</clipPath>
</defs>
</svg>