<svg width="30" height="30" viewBox="0 0 30 30" fill="none" xmlns="http://www.w3.org/2000/svg">
<path d="M7.57143 23.6786H11.4286V15.9643H19.1429V23.6786H23V12.1071L15.2857 6.32143L7.57143 12.1071V23.6786ZM7.57143 26.25C6.86429 26.25 6.25914 25.9984 5.756 25.4953C5.252 24.9913 5 24.3857 5 23.6786V12.1071C5 11.7 5.09129 11.3143 5.27386 10.95C5.45557 10.5857 5.70714 10.2857 6.02857 10.05L13.7429 4.26429C13.9786 4.09286 14.225 3.96429 14.4821 3.87857C14.7393 3.79286 15.0071 3.75 15.2857 3.75C15.5643 3.75 15.8321 3.79286 16.0893 3.87857C16.3464 3.96429 16.5929 4.09286 16.8286 4.26429L24.5429 10.05C24.8643 10.2857 25.1163 10.5857 25.2989 10.95C25.4806 11.3143 25.5714 11.7 25.5714 12.1071V23.6786C25.5714 24.3857 25.3199 24.9913 24.8167 25.4953C24.3127 25.9984 23.7071 26.25 23 26.25H16.5714V18.5357H14V26.25H7.57143Z" fill="#2C3D50"/>
</svg>
