<svg width="30" height="30" viewBox="0 0 30 30" fill="none" xmlns="http://www.w3.org/2000/svg">
<path d="M19.5682 21.1364C19.9943 21.1364 20.3564 20.987 20.6543 20.6884C20.953 20.3905 21.1023 20.0284 21.1023 19.6023C21.1023 19.1761 20.953 18.8141 20.6543 18.5161C20.3564 18.2175 19.9943 18.0682 19.5682 18.0682C19.142 18.0682 18.78 18.2175 18.482 18.5161C18.1834 18.8141 18.0341 19.1761 18.0341 19.6023C18.0341 20.0284 18.1834 20.3905 18.482 20.6884C18.78 20.987 19.142 21.1364 19.5682 21.1364ZM19.5682 24.2045C20.0966 24.2045 20.5783 24.0808 21.0133 23.8333C21.4476 23.5865 21.8097 23.2585 22.0994 22.8494C21.7244 22.6278 21.3239 22.4574 20.8977 22.3381C20.4716 22.2187 20.0284 22.1591 19.5682 22.1591C19.108 22.1591 18.6648 22.2187 18.2386 22.3381C17.8125 22.4574 17.4119 22.6278 17.0369 22.8494C17.3267 23.2585 17.6891 23.5865 18.1241 23.8333C18.5584 24.0808 19.0398 24.2045 19.5682 24.2045ZM10.3636 10.9091H16.5V8.86364C16.5 8.01136 16.2017 7.28693 15.6051 6.69034C15.0085 6.09375 14.2841 5.79545 13.4318 5.79545C12.5795 5.79545 11.8551 6.09375 11.2585 6.69034C10.6619 7.28693 10.3636 8.01136 10.3636 8.86364V10.9091ZM13.6875 25.2273H7.29545C6.73295 25.2273 6.25159 25.0272 5.85136 24.6269C5.45045 24.226 5.25 23.7443 5.25 23.1818V12.9545C5.25 12.392 5.45045 11.9103 5.85136 11.5094C6.25159 11.1092 6.73295 10.9091 7.29545 10.9091H8.31818V8.86364C8.31818 7.44886 8.81693 6.24273 9.81443 5.24523C10.8113 4.24841 12.017 3.75 13.4318 3.75C14.8466 3.75 16.0527 4.24841 17.0502 5.24523C18.047 6.24273 18.5455 7.44886 18.5455 8.86364V10.9091H19.5682C20.1307 10.9091 20.6124 11.1092 21.0133 11.5094C21.4135 11.9103 21.6136 12.392 21.6136 12.9545V14.2841C21.3068 14.1818 20.987 14.1051 20.6543 14.054C20.3223 14.0028 19.9602 13.9773 19.5682 13.9773V12.9545H7.29545V23.1818H12.7159C12.8523 23.5909 12.9886 23.9448 13.125 24.2434C13.2614 24.5414 13.4489 24.8693 13.6875 25.2273ZM19.5682 26.25C18.1534 26.25 16.9476 25.7516 15.9508 24.7548C14.9533 23.7573 14.4545 22.5511 14.4545 21.1364C14.4545 19.7216 14.9533 18.5155 15.9508 17.518C16.9476 16.5211 18.1534 16.0227 19.5682 16.0227C20.983 16.0227 22.1891 16.5211 23.1866 17.518C24.1834 18.5155 24.6818 19.7216 24.6818 21.1364C24.6818 22.5511 24.1834 23.7573 23.1866 24.7548C22.1891 25.7516 20.983 26.25 19.5682 26.25Z" fill="#2C3D50"/>
</svg>
