<svg width="26" height="30" viewBox="0 0 26 30" fill="none" xmlns="http://www.w3.org/2000/svg">
<path d="M2.91602 0.126953V29.8685H25.3247V6.74191L18.7098 0.126953H2.91602Z" fill="#FAFAFA"/>
<path d="M18.7129 0.138672L25.2986 6.72434H18.7129V0.138672Z" fill="#E6E6E6"/>
<path d="M2.92598 12.4025C1.96169 11.4383 0.997491 10.4741 0.0332031 9.50977H2.92598V12.4025Z" fill="#E20000"/>
<path d="M25.4503 30H2.7832V0H18.7597L18.7975 0.0378137L25.4503 6.69058V29.9999V30ZM3.04161 29.7416H25.1919V6.79765L18.6527 0.258407H3.04161V29.7415V29.7416Z" fill="#808080"/>
<path d="M25.295 6.85581H18.7093C18.638 6.85581 18.5801 6.79793 18.5801 6.72661V0.140938C18.5801 0.0886541 18.6115 0.041538 18.6598 0.0215546C18.7081 0.00157109 18.7637 0.0125965 18.8007 0.0495486L25.3863 6.63522C25.4233 6.67217 25.4343 6.72773 25.4143 6.77605C25.3944 6.82429 25.3472 6.85581 25.295 6.85581ZM18.8385 6.59741H24.9831L18.8385 0.452835V6.59741Z" fill="#808080"/>
<path d="M15.6453 3.14258H0V9.50593H15.6453V3.14258Z" fill="#E20000"/>
<path d="M11.888 16.0468V13.9355H5.41797V25.311H22.8167V16.0468H11.888ZM6.23729 14.755H11.0686V16.0469H6.23729V14.755ZM6.23729 21.0886H11.0686V22.3805H6.23729V21.0886ZM6.23729 20.2693V18.9773H11.0686V20.2693H6.23729ZM6.23729 18.1581V16.8661H11.0686V18.1581H6.23729ZM6.23729 24.4918V23.1999H11.0686V24.4918H6.23729ZM21.9974 24.4918H11.888V23.1999H21.9974V24.4918ZM21.9974 22.3805H11.888V21.0886H21.9974V22.3805ZM21.9974 20.2693H11.888V18.9773H21.9974V20.2693ZM11.888 18.1581V16.8661H21.9974V18.1581H11.888Z" fill="#E20000"/>
<path d="M3.80273 8.18182V4.27734H5.06783C5.54723 4.27734 5.85973 4.29688 6.00533 4.33594C6.22905 4.39453 6.41637 4.52237 6.56729 4.71946C6.71822 4.91477 6.79368 5.16779 6.79368 5.47852C6.79368 5.71822 6.75018 5.91974 6.66318 6.0831C6.57617 6.24645 6.4652 6.37518 6.33026 6.46928C6.19709 6.56161 6.06126 6.62287 5.92276 6.65305C5.73455 6.69034 5.462 6.70898 5.10511 6.70898H4.59109V8.18182H3.80273ZM4.59109 4.93786V6.04581H5.02255C5.33327 6.04581 5.54102 6.02539 5.64577 5.98455C5.75053 5.94371 5.83221 5.87979 5.8908 5.79279C5.95117 5.70579 5.98136 5.60458 5.98136 5.48917C5.98136 5.34712 5.93963 5.22994 5.85618 5.13761C5.77273 5.04528 5.66708 4.98757 5.53924 4.96449C5.44514 4.94673 5.25604 4.93786 4.97195 4.93786H4.59109Z" fill="white"/>
<path d="M7.43821 4.27734H8.87908C9.20401 4.27734 9.4517 4.3022 9.62216 4.35192C9.85121 4.41939 10.0474 4.53924 10.2108 4.71147C10.3741 4.8837 10.4984 5.09499 10.5836 5.34535C10.6689 5.59393 10.7115 5.9011 10.7115 6.26687C10.7115 6.58825 10.6715 6.86523 10.5916 7.09783C10.494 7.38192 10.3546 7.61186 10.1735 7.78764C10.0368 7.92081 9.8521 8.02468 9.6195 8.09925C9.44549 8.1543 9.21289 8.18182 8.9217 8.18182H7.43821V4.27734ZM8.22656 4.93786V7.52397H8.81516C9.03533 7.52397 9.19425 7.51154 9.2919 7.48668C9.41974 7.45472 9.52539 7.40057 9.60884 7.32422C9.69407 7.24787 9.76332 7.12269 9.81658 6.94869C9.86985 6.7729 9.89648 6.53409 9.89648 6.23224C9.89648 5.9304 9.86985 5.69869 9.81658 5.53711C9.76332 5.37553 9.68874 5.24947 9.59286 5.15891C9.49698 5.06836 9.37536 5.0071 9.22798 4.97514C9.1179 4.95028 8.90217 4.93786 8.58079 4.93786H8.22656Z" fill="white"/>
<path d="M11.388 8.18182V4.27734H14.0646V4.93786H12.1763V5.86204H13.8063V6.52255H12.1763V8.18182H11.388Z" fill="white"/>
</svg>
