<svg width="22" height="23" viewBox="0 0 22 23" fill="none" xmlns="http://www.w3.org/2000/svg">
<g clip-path="url(#clip0_470_145247)">
<path d="M17.4167 17.9167H19.25V19.75H17.4167V17.9167ZM17.4167 16.0833H19.25V14.25H17.4167V16.0833ZM2.75 12.4167H4.58333V10.5833H2.75V12.4167ZM2.75 16.0833H4.58333V14.25H2.75V16.0833ZM2.75 8.75H4.58333V6.91667H2.75V8.75ZM2.75 5.08333H4.58333V3.25H2.75V5.08333ZM6.41667 5.08333H8.25V3.25H6.41667V5.08333ZM13.75 19.75H15.5833V17.9167H13.75V19.75ZM10.0833 19.75H11.9167V17.9167H10.0833V19.75ZM13.75 19.75H15.5833V17.9167H13.75V19.75ZM6.41667 19.75H8.25V17.9167H6.41667V19.75ZM2.75 19.75H4.58333V17.9167H2.75V19.75ZM19.25 7.83333C19.25 5.30333 17.1967 3.25 14.6667 3.25H10.0833V5.08333H14.6667C16.1792 5.08333 17.4167 6.32083 17.4167 7.83333V12.4167H19.25V7.83333Z" fill="#2C3D50"/>
</g>
<defs>
<clipPath id="clip0_470_145247">
<rect width="22" height="22" fill="white" transform="translate(0 0.5)"/>
</clipPath>
</defs>
</svg>
