<svg width="22" height="23" viewBox="0 0 22 23" fill="none" xmlns="http://www.w3.org/2000/svg">
<path d="M4.58333 5.08333L2.75 5.08333L2.75 3.25L4.58333 3.25L4.58333 5.08333ZM4.58333 6.91666L2.75 6.91666L2.75 8.75L4.58333 8.75L4.58333 6.91666ZM19.25 10.5833L17.4167 10.5833L17.4167 12.4167L19.25 12.4167L19.25 10.5833ZM19.25 6.91667L17.4167 6.91667L17.4167 8.75L19.25 8.75L19.25 6.91667ZM19.25 14.25L17.4167 14.25L17.4167 16.0833L19.25 16.0833L19.25 14.25ZM19.25 17.9167L17.4167 17.9167L17.4167 19.75L19.25 19.75L19.25 17.9167ZM15.5833 17.9167L13.75 17.9167L13.75 19.75L15.5833 19.75L15.5833 17.9167ZM8.25 3.25L6.41667 3.25L6.41667 5.08333L8.25 5.08333L8.25 3.25ZM11.9167 3.25L10.0833 3.25L10.0833 5.08333L11.9167 5.08333L11.9167 3.25ZM8.25 3.25L6.41667 3.25L6.41667 5.08333L8.25 5.08333L8.25 3.25ZM15.5833 3.25L13.75 3.25L13.75 5.08333L15.5833 5.08333L15.5833 3.25ZM19.25 3.25L17.4167 3.25L17.4167 5.08333L19.25 5.08333L19.25 3.25ZM2.75 15.1667C2.75 17.6967 4.80333 19.75 7.33333 19.75L11.9167 19.75L11.9167 17.9167L7.33333 17.9167C5.82083 17.9167 4.58333 16.6792 4.58333 15.1667L4.58333 10.5833L2.75 10.5833L2.75 15.1667Z" fill="#2C3D50"/>
</svg>
