<svg width="22" height="23" viewBox="0 0 22 23" fill="none" xmlns="http://www.w3.org/2000/svg">
<path d="M4.58333 17.9167L4.58333 19.75L2.75 19.75L2.75 17.9167L4.58333 17.9167ZM6.41667 17.9167L6.41667 19.75L8.25 19.75L8.25 17.9167L6.41667 17.9167ZM10.0833 3.25L10.0833 5.08333L11.9167 5.08333L11.9167 3.25L10.0833 3.25ZM6.41667 3.25L6.41667 5.08333L8.25 5.08333L8.25 3.25L6.41667 3.25ZM13.75 3.25L13.75 5.08333L15.5833 5.08333L15.5833 3.25L13.75 3.25ZM17.4167 3.25L17.4167 5.08333L19.25 5.08333L19.25 3.25L17.4167 3.25ZM17.4167 6.91667L17.4167 8.75L19.25 8.75L19.25 6.91667L17.4167 6.91667ZM2.75 14.25L2.75 16.0833L4.58333 16.0833L4.58333 14.25L2.75 14.25ZM2.75 10.5833L2.75 12.4167L4.58333 12.4167L4.58333 10.5833L2.75 10.5833ZM2.75 14.25L2.75 16.0833L4.58333 16.0833L4.58333 14.25L2.75 14.25ZM2.75 6.91667L2.75 8.75L4.58333 8.75L4.58333 6.91667L2.75 6.91667ZM2.75 3.25L2.75 5.08333L4.58333 5.08333L4.58333 3.25L2.75 3.25ZM14.6667 19.75C17.1967 19.75 19.25 17.6967 19.25 15.1667L19.25 10.5833L17.4167 10.5833L17.4167 15.1667C17.4167 16.6792 16.1792 17.9167 14.6667 17.9167L10.0833 17.9167L10.0833 19.75L14.6667 19.75Z" fill="#2C3D50"/>
</svg>
