<svg width="22" height="23" viewBox="0 0 22 23" fill="none" xmlns="http://www.w3.org/2000/svg">
<path d="M17.4167 5.08333L17.4167 3.25L19.25 3.25L19.25 5.08333L17.4167 5.08333ZM15.5833 5.08333L15.5833 3.25L13.75 3.25L13.75 5.08333L15.5833 5.08333ZM11.9167 19.75L11.9167 17.9167L10.0833 17.9167L10.0833 19.75L11.9167 19.75ZM15.5833 19.75L15.5833 17.9167L13.75 17.9167L13.75 19.75L15.5833 19.75ZM8.25 19.75L8.25 17.9167L6.41667 17.9167L6.41667 19.75L8.25 19.75ZM4.58333 19.75L4.58333 17.9167L2.75 17.9167L2.75 19.75L4.58333 19.75ZM4.58333 16.0833L4.58333 14.25L2.75 14.25L2.75 16.0833L4.58333 16.0833ZM19.25 8.75L19.25 6.91667L17.4167 6.91667L17.4167 8.75L19.25 8.75ZM19.25 12.4167L19.25 10.5833L17.4167 10.5833L17.4167 12.4167L19.25 12.4167ZM19.25 8.75L19.25 6.91667L17.4167 6.91667L17.4167 8.75L19.25 8.75ZM19.25 16.0833L19.25 14.25L17.4167 14.25L17.4167 16.0833L19.25 16.0833ZM19.25 19.75L19.25 17.9167L17.4167 17.9167L17.4167 19.75L19.25 19.75ZM7.33333 3.25C4.80333 3.25 2.75 5.30333 2.75 7.83333L2.75 12.4167L4.58333 12.4167L4.58333 7.83333C4.58333 6.32083 5.82083 5.08333 7.33333 5.08333L11.9167 5.08333L11.9167 3.25L7.33333 3.25Z" fill="#2C3D50"/>
</svg>
