<svg width="25" height="24" viewBox="0 0 25 24" fill="none" xmlns="http://www.w3.org/2000/svg">
<rect x="0.5" width="24" height="24" rx="4" fill="#F5F5F5"/>
<path d="M5.3 19.4C4.805 19.4 4.3814 19.2239 4.0292 18.8717C3.6764 18.5189 3.5 18.095 3.5 17.6V6.8C3.5 6.305 3.6764 5.8814 4.0292 5.5292C4.3814 5.1764 4.805 5 5.3 5H19.7C20.195 5 20.6189 5.1764 20.9717 5.5292C21.3239 5.8814 21.5 6.305 21.5 6.8V17.6C21.5 18.095 21.3239 18.5189 20.9717 18.8717C20.6189 19.2239 20.195 19.4 19.7 19.4H5.3ZM5.3 17.6H19.7V6.8H5.3V17.6Z" fill="#0156A3"/>
</svg>
