<svg width="25" height="24" viewBox="0 0 25 24" fill="none" xmlns="http://www.w3.org/2000/svg">
<rect x="0.5" width="24" height="24" rx="4" fill="#F5F5F5"/>
<path d="M19.6053 20.5526H5.39474C4.87368 20.5526 4.42747 20.3673 4.05611 19.9965C3.68537 19.6252 3.5 19.1789 3.5 18.6579V5.39474C3.5 4.87368 3.68537 4.42747 4.05611 4.05611C4.42747 3.68537 4.87368 3.5 5.39474 3.5H19.6053C20.1263 3.5 20.5725 3.68537 20.9439 4.05611C21.3146 4.42747 21.5 4.87368 21.5 5.39474V18.6579C21.5 19.1789 21.3146 19.6252 20.9439 19.9965C20.5725 20.3673 20.1263 20.5526 19.6053 20.5526ZM5.39474 8.23684H19.6053V5.39474H5.39474V8.23684ZM8.23684 10.1316H5.39474V18.6579H8.23684V10.1316ZM16.7632 10.1316V18.6579H19.6053V10.1316H16.7632ZM14.8684 10.1316H10.1316V18.6579H14.8684V10.1316Z" fill="#0156A3"/>
</svg>
