<svg width="25" height="24" viewBox="0 0 25 24" fill="none" xmlns="http://www.w3.org/2000/svg">
<rect x="0.5" width="24" height="24" rx="4" fill="#F5F5F5"/>
<path d="M9.35 19.4C8.975 19.4 8.6564 19.2686 8.3942 19.0058C8.1314 18.7436 8 18.425 8 18.05V7.7H4.85C4.475 7.7 4.1564 7.5686 3.8942 7.3058C3.6314 7.0436 3.5 6.725 3.5 6.35C3.5 5.975 3.6314 5.6564 3.8942 5.3942C4.1564 5.1314 4.475 5 4.85 5H13.85C14.225 5 14.5436 5.1314 14.8058 5.3942C15.0686 5.6564 15.2 5.975 15.2 6.35C15.2 6.725 15.0686 7.0436 14.8058 7.3058C14.5436 7.5686 14.225 7.7 13.85 7.7H10.7V18.05C10.7 18.425 10.5686 18.7436 10.3058 19.0058C10.0436 19.2686 9.725 19.4 9.35 19.4ZM17.45 19.4C17.075 19.4 16.7564 19.2686 16.4942 19.0058C16.2314 18.7436 16.1 18.425 16.1 18.05V12.2H14.75C14.375 12.2 14.0564 12.0686 13.7942 11.8058C13.5314 11.5436 13.4 11.225 13.4 10.85C13.4 10.475 13.5314 10.1564 13.7942 9.8942C14.0564 9.6314 14.375 9.5 14.75 9.5H20.15C20.525 9.5 20.8436 9.6314 21.1058 9.8942C21.3686 10.1564 21.5 10.475 21.5 10.85C21.5 11.225 21.3686 11.5436 21.1058 11.8058C20.8436 12.0686 20.525 12.2 20.15 12.2H18.8V18.05C18.8 18.425 18.6686 18.7436 18.4058 19.0058C18.1436 19.2686 17.825 19.4 17.45 19.4Z" fill="#0156A3"/>
</svg>
