<svg width="18" height="18" viewBox="0 0 18 18" fill="none" xmlns="http://www.w3.org/2000/svg">
<path d="M9 13.3772C8.68125 13.3772 8.41425 13.2663 8.199 13.0444C7.983 12.8232 7.875 12.549 7.875 12.2215V3.95827L5.76562 6.1252C5.54063 6.35634 5.27813 6.47191 4.97813 6.47191C4.67813 6.47191 4.40625 6.34671 4.1625 6.09631C3.9375 5.86517 3.82988 5.5905 3.83963 5.2723C3.84863 4.95486 3.95625 4.69021 4.1625 4.47833L8.2125 0.317817C8.325 0.202247 8.44687 0.120192 8.57812 0.0716531C8.70938 0.0238842 8.85 0 9 0C9.15 0 9.29062 0.0238842 9.42188 0.0716531C9.55313 0.120192 9.675 0.202247 9.7875 0.317817L13.8375 4.47833C14.0625 4.70947 14.1701 4.98376 14.1604 5.30119C14.1514 5.61939 14.0437 5.88443 13.8375 6.09631C13.6125 6.32745 13.3455 6.44764 13.0365 6.45689C12.7268 6.4669 12.4594 6.35634 12.2344 6.1252L10.125 3.95827V12.2215C10.125 12.549 10.0174 12.8232 9.80212 13.0444C9.58613 13.2663 9.31875 13.3772 9 13.3772ZM2.25 18C1.63125 18 1.10175 17.7739 0.6615 17.3216C0.2205 16.8686 0 16.3242 0 15.6886V13.3772C0 13.0498 0.107625 12.7751 0.322875 12.5532C0.538875 12.3321 0.80625 12.2215 1.125 12.2215C1.44375 12.2215 1.71112 12.3321 1.92712 12.5532C2.14237 12.7751 2.25 13.0498 2.25 13.3772V15.6886H15.75V13.3772C15.75 13.0498 15.858 12.7751 16.074 12.5532C16.2892 12.3321 16.5562 12.2215 16.875 12.2215C17.1938 12.2215 17.4608 12.3321 17.676 12.5532C17.892 12.7751 18 13.0498 18 13.3772V15.6886C18 16.3242 17.7799 16.8686 17.3396 17.3216C16.8986 17.7739 16.3687 18 15.75 18H2.25Z" fill="black"/>
</svg>
