<svg width="44" height="28" viewBox="0 0 44 28" fill="none" xmlns="http://www.w3.org/2000/svg">
<rect width="44" height="28" rx="8" fill="#A9A9AC"/>
<path d="M8.304 16.508H5.028L4.44 18.5C4.336 18.516 4.232 18.528 4.128 18.536C4.024 18.544 3.92 18.548 3.816 18.548C3.704 18.548 3.592 18.544 3.48 18.536C3.376 18.528 3.28 18.516 3.192 18.5L6 9.872C6.104 9.856 6.216 9.844 6.336 9.836C6.456 9.828 6.58 9.824 6.708 9.824C6.82 9.824 6.936 9.828 7.056 9.836C7.176 9.844 7.292 9.856 7.404 9.872L10.2 18.5C10.104 18.516 9.996 18.528 9.876 18.536C9.756 18.544 9.64 18.548 9.528 18.548C9.424 18.548 9.316 18.544 9.204 18.536C9.1 18.528 9 18.516 8.904 18.5L8.304 16.508ZM5.352 15.44H7.98L6.66 11.036L5.352 15.44ZM15.3999 17.432C15.4639 17.544 15.5199 17.684 15.5679 17.852C15.6159 18.02 15.6439 18.192 15.6519 18.368C15.1799 18.552 14.6399 18.644 14.0319 18.644C13.0079 18.644 12.2359 18.356 11.7159 17.78C11.1959 17.196 10.9359 16.412 10.9359 15.428C10.9359 14.972 10.9999 14.548 11.1279 14.156C11.2559 13.764 11.4439 13.424 11.6919 13.136C11.9479 12.848 12.2639 12.62 12.6399 12.452C13.0159 12.284 13.4519 12.2 13.9479 12.2C14.2839 12.2 14.5799 12.22 14.8359 12.26C15.0919 12.3 15.3359 12.364 15.5679 12.452C15.5679 12.588 15.5479 12.748 15.5079 12.932C15.4759 13.108 15.4279 13.264 15.3639 13.4C14.9719 13.264 14.5239 13.196 14.0199 13.196C13.4039 13.196 12.9439 13.4 12.6399 13.808C12.3359 14.216 12.1839 14.756 12.1839 15.428C12.1839 16.196 12.3559 16.76 12.6999 17.12C13.0439 17.472 13.5159 17.648 14.1159 17.648C14.3559 17.648 14.5759 17.632 14.7759 17.6C14.9839 17.568 15.1919 17.512 15.3999 17.432ZM17.2544 13.292H16.3184L16.2704 13.124L18.3344 10.82H18.4304V12.344H19.9904C20.0224 12.48 20.0384 12.632 20.0384 12.8C20.0384 12.888 20.0344 12.972 20.0264 13.052C20.0184 13.132 20.0064 13.212 19.9904 13.292H18.4304V16.1C18.4304 16.436 18.4424 16.704 18.4664 16.904C18.4984 17.104 18.5464 17.26 18.6104 17.372C18.6824 17.476 18.7744 17.548 18.8864 17.588C19.0064 17.62 19.1544 17.636 19.3304 17.636C19.4664 17.636 19.5944 17.628 19.7144 17.612C19.8344 17.588 19.9424 17.564 20.0384 17.54C20.0944 17.7 20.1264 17.864 20.1344 18.032C20.1504 18.2 20.1584 18.348 20.1584 18.476C19.9984 18.516 19.8304 18.544 19.6544 18.56C19.4784 18.584 19.2904 18.596 19.0904 18.596C18.5144 18.596 18.0624 18.456 17.7344 18.176C17.4144 17.896 17.2544 17.432 17.2544 16.784V13.292ZM21.6872 13.28H20.9072C20.8912 13.216 20.8792 13.144 20.8712 13.064C20.8632 12.976 20.8592 12.892 20.8592 12.812C20.8592 12.732 20.8632 12.652 20.8712 12.572C20.8792 12.484 20.8912 12.408 20.9072 12.344H22.8512V18.5C22.7632 18.516 22.6632 18.528 22.5512 18.536C22.4472 18.544 22.3512 18.548 22.2632 18.548C22.1832 18.548 22.0872 18.544 21.9752 18.536C21.8712 18.528 21.7752 18.516 21.6872 18.5V13.28ZM21.4232 10.988C21.4072 10.892 21.3952 10.788 21.3872 10.676C21.3872 10.564 21.3872 10.464 21.3872 10.376C21.3872 10.288 21.3872 10.188 21.3872 10.076C21.3952 9.964 21.4072 9.864 21.4232 9.776C21.5272 9.76 21.6392 9.748 21.7592 9.74C21.8792 9.732 21.9832 9.728 22.0712 9.728C22.1592 9.728 22.2632 9.732 22.3832 9.74C22.5032 9.748 22.6112 9.76 22.7072 9.776C22.7232 9.864 22.7312 9.964 22.7312 10.076C22.7392 10.188 22.7432 10.288 22.7432 10.376C22.7432 10.464 22.7392 10.564 22.7312 10.676C22.7312 10.788 22.7232 10.892 22.7072 10.988C22.6112 11.004 22.5032 11.016 22.3832 11.024C22.2712 11.032 22.1712 11.036 22.0832 11.036C21.9872 11.036 21.8792 11.032 21.7592 11.024C21.6392 11.016 21.5272 11.004 21.4232 10.988ZM24.0282 12.344C24.1402 12.328 24.2562 12.316 24.3762 12.308C24.4962 12.3 24.6042 12.296 24.7002 12.296C24.8042 12.296 24.9162 12.3 25.0362 12.308C25.1642 12.316 25.2722 12.328 25.3602 12.344L27.0402 17.42L28.7322 12.344C28.8202 12.328 28.9202 12.316 29.0322 12.308C29.1442 12.3 29.2522 12.296 29.3562 12.296C29.4442 12.296 29.5442 12.3 29.6562 12.308C29.7682 12.316 29.8802 12.328 29.9922 12.344L27.5922 18.5C27.4882 18.516 27.3842 18.528 27.2802 18.536C27.1762 18.544 27.0802 18.548 26.9922 18.548C26.9042 18.548 26.8082 18.544 26.7042 18.536C26.6082 18.528 26.5122 18.516 26.4162 18.5L24.0282 12.344ZM34.4112 15.608C34.2912 15.592 34.1392 15.576 33.9552 15.56C33.7712 15.544 33.6152 15.536 33.4872 15.536C32.9912 15.536 32.6112 15.628 32.3472 15.812C32.0912 15.996 31.9632 16.276 31.9632 16.652C31.9632 16.892 32.0072 17.08 32.0952 17.216C32.1832 17.352 32.2912 17.456 32.4192 17.528C32.5552 17.6 32.7032 17.644 32.8632 17.66C33.0232 17.676 33.1752 17.684 33.3192 17.684C33.5032 17.684 33.6912 17.676 33.8832 17.66C34.0832 17.636 34.2592 17.604 34.4112 17.564V15.608ZM34.4112 14.444C34.4112 13.972 34.2912 13.644 34.0512 13.46C33.8112 13.276 33.4632 13.184 33.0072 13.184C32.7272 13.184 32.4632 13.208 32.2152 13.256C31.9752 13.296 31.7392 13.352 31.5072 13.424C31.3552 13.16 31.2792 12.844 31.2792 12.476C31.5512 12.388 31.8512 12.32 32.1792 12.272C32.5072 12.224 32.8232 12.2 33.1272 12.2C33.9272 12.2 34.5352 12.384 34.9512 12.752C35.3672 13.112 35.5752 13.692 35.5752 14.492V18.344C35.2952 18.408 34.9552 18.472 34.5552 18.536C34.1552 18.608 33.7472 18.644 33.3312 18.644C32.9392 18.644 32.5832 18.608 32.2632 18.536C31.9512 18.464 31.6832 18.348 31.4592 18.188C31.2432 18.028 31.0752 17.824 30.9552 17.576C30.8352 17.328 30.7752 17.028 30.7752 16.676C30.7752 16.332 30.8432 16.032 30.9792 15.776C31.1232 15.512 31.3152 15.296 31.5552 15.128C31.7952 14.952 32.0712 14.824 32.3832 14.744C32.6952 14.656 33.0232 14.612 33.3672 14.612C33.6232 14.612 33.8312 14.62 33.9912 14.636C34.1592 14.644 34.2992 14.656 34.4112 14.672V14.444ZM37.3584 12.344C37.4464 12.328 37.5304 12.316 37.6104 12.308C37.6904 12.3 37.7744 12.296 37.8624 12.296C37.9504 12.296 38.0384 12.3 38.1264 12.308C38.2144 12.316 38.2944 12.328 38.3664 12.344C38.3904 12.464 38.4144 12.624 38.4384 12.824C38.4624 13.016 38.4744 13.18 38.4744 13.316C38.6424 13.044 38.8624 12.808 39.1344 12.608C39.4144 12.408 39.7704 12.308 40.2024 12.308C40.2664 12.308 40.3304 12.312 40.3944 12.32C40.4664 12.32 40.5264 12.324 40.5744 12.332C40.5904 12.404 40.6024 12.48 40.6104 12.56C40.6184 12.64 40.6224 12.724 40.6224 12.812C40.6224 12.908 40.6144 13.008 40.5984 13.112C40.5904 13.216 40.5784 13.316 40.5624 13.412C40.4984 13.396 40.4304 13.388 40.3584 13.388C40.2944 13.388 40.2424 13.388 40.2024 13.388C39.9864 13.388 39.7784 13.42 39.5784 13.484C39.3864 13.54 39.2104 13.644 39.0504 13.796C38.8984 13.948 38.7744 14.156 38.6784 14.42C38.5904 14.684 38.5464 15.024 38.5464 15.44V18.5C38.4584 18.516 38.3584 18.528 38.2464 18.536C38.1424 18.544 38.0464 18.548 37.9584 18.548C37.8704 18.548 37.7704 18.544 37.6584 18.536C37.5544 18.528 37.4544 18.516 37.3584 18.5V12.344Z" fill="white"/>
</svg>